# AST/ASF file generated using VICON BodyLanguage
# -----------------------------------------------
:version 1.10
:name VICON
:units
  mass 1.0
  length 0.45
  angle deg
:documentation
   .ast/.asf automatically generated from VICON data using
   VICON BodyBuilder and BodyLanguage model FoxedUp or BRILLIANT.MOD
:root
   order TX TY TZ RX RY RZ
   axis XYZ
   position 0 0 0  
   orientation 0 0 0 
:bonedata
  begin
     id 1 
     name lhipjoint
     direction 0.543289 -0.788407 0.288535 
     length 2.57127 
     axis 0 0 0  XYZ
  end
  begin
     id 2 
     name lfemur
     direction 0.34202 -0.939693 0  
     length 8.47298  
     axis 0 0 20  XYZ
    dof rx ry rz
    limits (-160.0 20.0)
           (-70.0 70.0)
           (-60.0 70.0)
  end
  begin
     id 3 
     name ltibia
     direction 0.34202 -0.939693 0   
     length 8.13367   
     axis 0 0 20   XYZ
    dof rx
    limits (-10.0 170.0)
  end
  begin
     id 4 
     name lfoot
     direction 0.114037 -0.313314 0.942778   
     length 2.67113   
     axis -90 7.62852e-016 20   XYZ
    dof rx rz
    limits (-45.0 90.0)
           (-70.0 20.0)
  end
  begin
     id 5 
     name ltoes
     direction 1.536e-011 -4.21847e-011 1   
     length 1.32217   
     axis -90 7.62852e-016 20   XYZ
    dof rx
    limits (-90.0 20.0)
  end
  begin
     id 6 
     name rhipjoint
     direction -0.571293 -0.770752 0.282074   
     length 2.63017  
     axis 0 0 0  XYZ 
  end
  begin
     id 7 
     name rfemur
     direction -0.34202 -0.939693 0   
     length 8.60885   
     axis 0 0 -20   XYZ
    dof rx ry rz
    limits (-160.0 20.0)
           (-70.0 70.0)
           (-70.0 60.0)
  end
  begin
     id 8 
     name rtibia
     direction -0.34202 -0.939693 0   
     length 8.07673   
     axis 0 0 -20   XYZ
    dof rx
    limits (-10.0 170.0)
 end
 begin
     id 9 
     name rfoot
     direction -0.121336 -0.333368 0.934956   
     length 2.81602  
     axis -90 -7.62852e-016 -20   XYZ
    dof rx rz
    limits (-45.0 90.0)
           (-20.0 70.0)
  end
  begin
     id 10 
     name rtoes
     direction -1.53491e-011 -4.21808e-011 1   
     length 1.38905   
     axis -90 -7.62852e-016 -20   XYZ
    dof rx
    limits (-90.0 20.0)
  end
  begin
     id 11 
     name lowerback
     direction 0.0136776 0.999869 -0.00861835   
     length 2.14087   
     axis 0 0 0   XYZ
    dof rx ry rz
    limits (-20.0 45.0)
           (-30.0 30.0)
           (-30.0 30.0)
  end
  begin
     id 12 
     name upperback
     direction -0.00789158 0.999804 0.0181308   
     length 2.14151   
     axis 0 0 0   XYZ
    dof rx ry rz
    limits (-20.0 45.0)
           (-30.0 30.0)
           (-30.0 30.0)
  end
  begin
     id 13 
     name thorax
     direction -0.0135231 0.999666 0.0220247   
     length 2.13644   
     axis 0 0 0   XYZ
    dof rx ry rz
    limits (-20.0 45.0)
           (-30.0 30.0)
           (-30.0 30.0)
  end
  begin
     id 14 
     name lowerneck
     direction -0.0392259 0.997317 0.0618018   
     length 1.65045   
     axis 0 0 0   XYZ
    dof rx ry rz
    limits (-20.0 45.0)
           (-30.0 30.0)
           (-30.0 30.0)
  end
  begin
     id 15 
     name upperneck
     direction 0.0765547 0.994276 -0.0745319   
     length 1.66045   
     axis 0 0 0   XYZ
    dof rx ry rz
    limits (-20.0 45.0)
           (-30.0 30.0)
           (-30.0 30.0)
  end
  begin
     id 16
     name head
     direction 0.0241564 0.999031 -0.036785  
     length 1.66594  
     axis 0 0 0   XYZ
    dof rx ry rz
    limits (-20.0 45.0)
           (-30.0 30.0)
           (-30.0 30.0)
  end
  begin
     id 17 
     name lclavicle
     direction 0.967398 0.249018 0.0461573  
     length 3.75176  
     axis 0 0 0   XYZ
    dof ry rz
    limits (-20.0 10.0)
           (0.0 20.0)
  end
  begin
     id 18 
     name lhumerus
     direction 1 -4.48963e-011 -3.05005e-027   
     length 5.93342   
     axis 180 -30 -90   XYZ
    dof rx ry rz
    limits (-60.0 90.0)
           (-90.0 90.0)
           (-90.0 90.0)
  end
  begin
     id 19
     name lradius
     direction 1 -4.48957e-011 1.07006e-026   
     length 3.94763   
     axis 180 -30 -90   XYZ
    dof rx
    limits (-10.0 170.0)
  end
  begin
     id 20
     name lwrist
     direction 1 -4.48978e-011 1.92422e-026   
     length 1.97382   
     axis -1.18182e-014 90 90   XYZ
    dof ry
    limits (-180.0 0.0)
 end
  begin
     id 21 
     name lhand
     direction 1 -4.48931e-011 3.84844e-026   
     length 0.560187   
     axis -2.45563e-014 90 90   XYZ
    dof rx rz
    limits (-90.0 90.0)
           (-45.0 45.0)
  end
  begin
     id 22 
     name lfingers
     direction 1 -4.48952e-011 7.69687e-026   
     length 0.451637   
     axis -4.91126e-014 90 90   XYZ
    dof rx
    limits (0.0 90.0)
  end
  begin
     id 23
     name lthumb
     direction 0.707107 -6.34901e-011 0.707107   
     length 0.648463   
     axis -90 45 2.85299e-015   XYZ
    dof rx rz
    limits (-45.0 45.0)
           (-45.0 45.0)
  end
  begin
     id 24 
     name rclavicle
     direction -0.965946 0.258716 0.00371831   
     length 3.63667  
     axis 0 0 0   XYZ 
    dof ry rz
    limits (-10.0 20.0)
           (-20.0 0.0)
  end
  begin
     id 25 
     name rhumerus
     direction -1 -4.48966e-011 -1.78361e-028  
     length 6.28647   
     axis 180 30 90   XYZ
    dof rx ry rz
    limits (-90.0 60.0)
           (-90.0 90.0)
           (-90.0 90.0)
  end
  begin
     id 26 
     name rradius
     direction -1 -4.48961e-011 1.05248e-026   
     length 3.81645   
     axis 180 30 90   XYZ
    dof rx
    limits (-10.0 170.0)
  end
  begin
     id 27 
     name rwrist
     direction -1 -4.48979e-011 1.92422e-026   
     length 1.90822   
     axis -1.18182e-014 -90 -90   XYZ
    dof ry
    limits (-180.0 0.0)
  end
  begin
     id 28
     name rhand
     direction -1 -4.48937e-011 3.84844e-026   
     length 0.646185   
     axis -2.45563e-014 -90 -90   XYZ
    dof rx rz
    limits (-90.0 90.0)
           (-45.0 45.0)
  end
  begin
     id 29
     name rfingers
     direction -1 -4.48953e-011 7.69687e-026   
     length 0.520971   
     axis -4.91126e-014 -90 -90   XYZ
    dof rx
    limits (0.0 90.0)
  end
  begin
     id 30
     name rthumb
     direction -0.707107 -6.3494e-011 0.707107   
     length 0.748013   
     axis -90 -45 -2.85299e-015   XYZ
    dof rx rz
    limits (-45.0 45.0)
           (-45.0 45.0)
  end
:hierarchy
  begin
    root lhipjoint rhipjoint lowerback
    lhipjoint lfemur
    lfemur ltibia
    ltibia lfoot
    lfoot ltoes
    rhipjoint rfemur
    rfemur rtibia
    rtibia rfoot
    rfoot rtoes
    lowerback upperback
    upperback thorax
    thorax lowerneck lclavicle rclavicle
    lowerneck upperneck
    upperneck head
    lclavicle lhumerus
    lhumerus lradius
    lradius lwrist
    lwrist lhand lthumb
    lhand lfingers
    rclavicle rhumerus
    rhumerus rradius
    rradius rwrist
    rwrist rhand rthumb
    rhand rfingers
  end

#!OML:ASF H:\HAZMAT1\Patient Classification 1\Patient 3\Session 1\dancer.ASF
:FULLY-SPECIFIED
:DEGREES
104
upperback 6.423020 5.506350 0.604405
rfoot 7.339560 -6.255400
lradius 42.637901
lthumb -24.957199 -473.138000
rradius 43.544998
lwrist -37.332001
rhand -39.927399 -29.495501
rhumerus 49.761200 20.978100 -57.662701
lowerneck -7.512710 -5.086370 6.630570
lhand -52.469200 84.748199
ltibia 120.043999
head 4.939620 -4.241530 4.916770
rwrist 27.258101
lfingers 7.125020
rtoes 4.729790
lowerback 12.898600 3.523180 12.684000
rfingers 7.125020
lclavicle -0.000000 -0.000000
upperneck 8.979640 -10.647400 21.618700
rfemur -87.016998 -26.249201 19.868999
thorax 0.872510 2.856530 -7.059420
rclavicle -0.000000 -0.000000
rtibia 92.773697
lfoot 28.861300 -7.326660
lhumerus 16.410500 -6.630790 51.876999
rthumb -12.897800 300.923004
root -7.859700 10.511900 14.688800 -410.514008 -123.589996 118.359001
ltoes 41.285999
lfemur -88.576302 13.267900 -14.523200
105
upperback 2.692970 10.436500 -4.625490
rfoot 25.807899 3.950640
lradius 44.190300
lthumb -23.712700 -482.143005
rradius 44.253899
lwrist -35.511002
rhand -33.762299 -18.010500
rhumerus 51.662399 24.959801 -51.778599
lowerneck -7.517210 -7.389250 4.455930
lhand -51.171101 266.415009
ltibia 134.391006
head 5.660850 -5.660110 4.734360
rwrist 20.836500
lfingers 7.125020
rtoes 16.895800
lowerback 4.414180 7.781360 7.632220
rfingers 7.125020
lclavicle -0.000000 -0.000000
upperneck 10.294300 -13.700100 20.813200
rfemur -78.883698 -35.232800 29.789301
thorax 2.633850 5.414930 -9.134850
rclavicle -0.000000 -0.000000
rtibia 105.209999
lfoot 24.875000 -23.927900
lhumerus 5.358740 -8.160350 58.541401
rthumb -6.950120 312.123993
root -7.504040 9.510150 16.852400 -363.648987 -130.917999 75.560699
ltoes 45.240501
lfemur -97.438202 20.818199 -7.740550
106
upperback 1.235080 12.021200 -3.440500
rfoot 25.995899 13.336700
lradius 42.792198
lthumb -22.435499 -487.446991
rradius 60.180901
lwrist -26.490101
rhand -20.176399 -8.898810
rhumerus 45.949402 23.943701 -49.181400
lowerneck -4.630210 -6.126040 -1.212130
lhand -49.840000 261.269989
ltibia 142.518997
head 7.379100 -5.344790 4.720270
rwrist 3.379100
lfingers 7.125020
rtoes 4.601870
lowerback -3.980380 9.296060 8.566570
rfingers 7.125020
lclavicle 0.000000 0.000000
upperneck 17.609400 -12.557100 17.207899
rfemur -74.275597 -52.747799 31.627800
thorax 6.035710 6.294540 -6.994240
rclavicle 0.000000 0.000000
rtibia 132.266006
lfoot 14.008500 -25.976299
lhumerus -20.727200 15.988800 60.613201
rthumb 6.169560 321.210999
root -6.863430 7.533010 19.272600 -344.588989 -169.281998 55.718800
ltoes 9.436190
lfemur -116.115997 35.472698 -38.800400
107
upperback 3.247900 4.189980 1.059230
rfoot -19.168100 15.190000
lradius 37.114601
lthumb -21.584700 -486.040009
rradius 76.119301
lwrist 5.160630
rhand -39.863998 -35.856899
rhumerus 11.833600 -3.228660 -44.326000
lowerneck -4.903520 -7.278950 -9.511630
lhand -48.953899 262.778015
ltibia 146.287994
head 8.002940 -4.612260 4.027900
rwrist -10.716900
lfingers 7.125020
rtoes -8.184670
lowerback -7.700020 3.844020 9.002380
rfingers 7.125020
lclavicle -0.000000 0.000000
upperneck 20.042500 -10.345800 10.071700
rfemur -130.052002 -55.613098 67.565300
thorax 8.383700 2.525250 -3.260540
rclavicle -0.000000 0.000000
rtibia 148.649002
lfoot 4.045550 -21.882601
lhumerus -56.274300 38.934502 47.212200
rthumb -12.836600 294.558014
root -6.806890 5.469080 20.912800 -330.819000 -210.737000 47.183998
ltoes 5.198990
lfemur -148.389008 26.658600 -69.349899
